<svg class="main-svg" xmlns="http://www.w3.org/2000/svg" xmlns:xlink="http://www.w3.org/1999/xlink" width="563" height="516" style="" viewBox="0 0 563 516"><rect x="0" y="0" width="563" height="516" style="fill: rgb(255, 255, 255); fill-opacity: 1;"/><defs id="defs-b9a7db"><g class="clips"><clipPath id="clipb9a7dbxyplot" class="plotclip"><rect width="416" height="396"/></clipPath><clipPath class="axesclip" id="clipb9a7dbx"><rect x="60" y="0" width="416" height="516"/></clipPath><clipPath class="axesclip" id="clipb9a7dby"><rect x="0" y="60" width="563" height="396"/></clipPath><clipPath class="axesclip" id="clipb9a7dbxy"><rect x="60" y="60" width="416" height="396"/></clipPath></g><g class="gradients"/></defs><g class="bglayer"/><g class="layer-below"><g class="imagelayer"/><g class="shapelayer"/></g><g class="cartesianlayer"><g class="subplot xy"><g class="layer-subplot"><g class="shapelayer"/><g class="imagelayer"/></g><g class="gridlayer"><g class="x"><path class="xgrid crisp" transform="translate(164,0)" d="M0,60v396" style="stroke: rgb(238, 238, 238); stroke-opacity: 1; stroke-width: 1px;"/><path class="xgrid crisp" transform="translate(268,0)" d="M0,60v396" style="stroke: rgb(238, 238, 238); stroke-opacity: 1; stroke-width: 1px;"/><path class="xgrid crisp" transform="translate(372,0)" d="M0,60v396" style="stroke: rgb(238, 238, 238); stroke-opacity: 1; stroke-width: 1px;"/></g><g class="y"><path class="ygrid crisp" transform="translate(0,350.26)" d="M60,0h416" style="stroke: rgb(238, 238, 238); stroke-opacity: 1; stroke-width: 1px;"/><path class="ygrid crisp" transform="translate(0,264.32)" d="M60,0h416" style="stroke: rgb(238, 238, 238); stroke-opacity: 1; stroke-width: 1px;"/><path class="ygrid crisp" transform="translate(0,178.38)" d="M60,0h416" style="stroke: rgb(238, 238, 238); stroke-opacity: 1; stroke-width: 1px;"/><path class="ygrid crisp" transform="translate(0,92.44)" d="M60,0h416" style="stroke: rgb(238, 238, 238); stroke-opacity: 1; stroke-width: 1px;"/></g></g><g class="zerolinelayer"><path class="xzl zl crisp" transform="translate(60,0)" d="M0,60v396" style="stroke: rgb(68, 68, 68); stroke-opacity: 1; stroke-width: 1px;"/><path class="yzl zl crisp" transform="translate(0,436.2)" d="M60,0h416" style="stroke: rgb(68, 68, 68); stroke-opacity: 1; stroke-width: 1px;"/></g><path class="xlines-below"/><path class="ylines-below"/><g class="overlines-below"/><g class="xaxislayer-below"/><g class="yaxislayer-below"/><g class="overaxes-below"/><g class="plot" transform="translate(60,60)" clip-path="url('#clipb9a7dbxyplot')"><g class="scatterlayer mlayer"><g class="trace scatter tracee30afe" style="stroke-miterlimit: 2; opacity: 1;"><g class="fills"/><g class="errorbars"/><g class="lines"><path class="js-line" d="M0,376.2L0.52,19.8L1.04,57.4L1.56,65.14L3.64,148.7L4.16,135.64L5.2,179.8L5.72,163.54L6.24,161.79L6.76,169.48L7.28,170.9L7.8,188.8L8.84,170.8L9.36,172.01L9.88,190.44L10.4,177.24L11.96,196.06L12.48,184.66L13,183.85L13.52,177.65L14.04,208.14L14.56,161.61L15.6,206.85L16.12,193.98L16.64,156.68L17.16,189.83L17.68,218.99L18.2,183.28L19.24,210.53L19.76,188.18L20.28,144.43L20.8,214.83L21.32,182.52L21.84,211.7L22.36,154.93L22.88,200.06L23.4,213.23L23.92,173.31L24.96,184.62L25.48,193.47L26,189.84L26.52,225.2L27.04,224.28L27.56,214.93L28.08,182.57L28.6,192.56L29.12,215.43L29.64,207.78L30.16,188.97L30.68,170.67L31.2,201.17L31.72,182.86L32.24,193.23L32.76,214.24L33.28,185.97L33.8,185.52L34.32,214.52L34.84,126.43L35.36,210.57L35.88,206.47L36.4,232.74L36.92,171.73L37.44,202.45L37.96,254.77L38.48,204.92L39,205.79L39.52,212.88L40.04,245.13L40.56,212.78L41.08,204.85L41.6,158.65L42.12,209.56L42.64,195.75L43.16,158.37L44.2,256.71L44.72,173.72L45.24,213.46L45.76,196.23L46.28,208.12L46.8,171.86L47.32,226.44L47.84,220.54L48.36,195.79L49.4,216.67L49.92,219.6L50.44,205.76L50.96,222.8L51.48,227.43L52,147.89L52.52,225.34L53.04,217.45L53.56,191.37L54.08,212.93L54.6,192.72L55.12,199.88L55.64,225.99L56.68,185.95L57.2,211.79L58.24,220.52L58.76,213.7L59.28,246.89L59.8,236.44L60.32,179.34L61.36,222.17L61.88,194.97L62.4,204.8L62.92,197.11L63.44,222.3L63.96,205.61L64.48,172.66L65,195.67L65.52,213.77L66.04,200.19L66.56,232.39L67.08,219.75L67.6,244.8L68.64,187.43L69.16,189.29L69.68,235.01L70.2,198.8L70.72,206.08L71.24,233.48L72.28,187.22L72.8,208.46L73.32,237.72L73.84,175.6L74.36,228.75L74.88,215.06L75.4,168.03L75.92,230.91L76.44,181.45L76.96,251.73L77.48,220.5L78,184.34L78.52,205.45L79.56,233.51L80.08,205.97L81.12,183.25L81.64,221.83L82.16,220.77L82.68,192.93L83.2,240.25L83.72,215.38L84.24,205.56L84.76,223.96L85.8,190.63L86.32,200L86.84,231.18L87.36,203.23L87.88,222.77L88.4,194.59L88.92,220.23L89.44,208.98L89.96,197.57L90.48,222.31L91,198.94L92.04,232.66L92.56,209.16L93.08,188.31L93.6,244.3L95.16,214.05L95.68,212.78L96.2,243.95L96.72,241.8L97.24,217.48L98.28,201.07L98.8,222.06L99.32,224.27L99.84,239.48L100.36,230.31L100.88,235.58L101.92,222.51L102.44,238.6L102.96,207.43L103.48,241.38L105.04,191.44L105.56,224.57L106.08,244.58L106.6,224.13L107.12,227.51L107.64,221.52L108.16,252.95L108.68,201.08L109.2,214.57L109.72,191.18L110.24,234.41L110.76,222.83L111.28,236.21L111.8,199.63L112.32,210.52L112.84,227.98L113.36,223.64L113.88,207.45L114.92,246.26L115.44,237.36L117.52,202.86L118.04,240.83L118.56,244.35L119.08,195.54L119.6,206.9L120.12,244.95L120.64,203.44L121.16,206.25L121.68,230.97L122.2,231.62L122.72,190.84L123.76,228.89L124.28,226.13L124.8,211.87L125.32,220.74L125.84,260.78L126.36,212.48L126.88,209.72L127.4,225.11L127.92,197.59L128.44,239.18L128.96,257.18L129.48,236.16L131.04,224.85L131.56,217.48L132.08,234.39L132.6,189.57L134.16,233.72L134.68,202.05L135.2,206.32L135.72,246.44L136.24,217.78L136.76,229.01L137.28,224.39L137.8,206.24L138.32,241.32L138.84,208.53L139.36,234.49L140.4,243.74L140.92,235.83L141.44,233.27L141.96,216.75L142.48,207.07L143,234.14L144.56,206L145.08,220.18L145.6,250.66L146.12,234.3L147.16,204.87L147.68,222.55L148.2,227.19L148.72,253.4L149.76,163.5L150.28,236.44L150.8,209.1L151.32,236.78L151.84,233.63L152.36,199.95L152.88,225.05L153.4,212.22L154.44,232.93L154.96,218.8L155.48,234.03L156,226.82L156.52,230.9L157.04,225.09L157.56,194.63L158.08,206.24L158.6,250.65L159.64,208.62L160.16,239.75L160.68,221.39L161.2,242.41L162.24,210.07L162.76,203.56L163.8,244.35L164.32,221.92L164.84,205.97L165.36,234.47L165.88,233.62L166.4,245.81L166.92,238.2L167.44,241.9L167.96,219.63L168.48,252.91L169.52,217.36L170.04,259.73L171.08,238.18L171.6,198.95L172.64,257.25L173.16,239.65L174.2,208.76L174.72,238.66L175.24,246.98L175.76,244.59L176.28,219.94L176.8,235.45L177.32,206.13L178.36,200.97L178.88,223.3L179.4,246.07L179.92,229.4L180.44,254.96L180.96,242.94L181.48,204.36L182,254.3L183.56,231.65L184.08,240.16L184.6,227.33L185.12,233.48L185.64,231.44L186.16,215.14L186.68,237.2L187.2,219.18L187.72,225.01L188.24,257.49L188.76,192.77L189.28,214.09L189.8,235.4L190.32,234.7L190.84,222.69L191.36,208.52L191.88,232.1L192.92,214.15L193.44,241.69L193.96,246.25L194.48,244.98L195,215.8L195.52,254.68L196.04,239.5L196.56,236.85L197.08,209.34L197.6,234.75L198.12,248.45L198.64,215.23L199.16,258.28L199.68,235.63L200.72,214.79L201.24,257.74L202.28,262.05L202.8,242.27L203.32,216.31L203.84,216.9L204.36,254.73L205.4,209.65L205.92,249.19L206.96,218.96L207.48,221.57L208,225.82L208.52,215.24L209.04,219.44L209.56,222.98L210.08,223.06L210.6,242.63L211.12,249.6L211.64,246.13L212.16,224.18L212.68,230.99L213.2,229.33L213.72,207.68L214.24,233.62L216.32,214.16L216.84,224.48L217.36,232.05L217.88,260.83L218.4,256.46L218.92,230.97L219.44,211.58L219.96,222.92L220.48,221.6L221,256.36L221.52,202.78L222.04,229.55L222.56,242.91L223.08,223.34L223.6,221.04L224.12,248.64L224.64,206.22L225.16,237.97L225.68,245.93L226.2,240.71L227.24,227.08L227.76,196.45L228.28,240.28L228.8,220.56L229.32,252.76L229.84,239.46L230.36,248.25L230.88,221.71L231.4,237.24L231.92,222.53L232.44,239.1L232.96,259.35L233.48,223.76L234,229.26L234.52,267.54L235.04,237.75L235.56,241.23L236.08,226.1L236.6,227.86L237.12,223.43L237.64,231.43L238.16,224L238.68,236.19L239.2,209.33L241.28,250.25L241.8,242.72L242.32,234.42L242.84,252.45L243.36,252.04L243.88,227.46L244.92,236.24L245.44,235.18L245.96,232.74L246.48,233.33L247,264.76L247.52,251.27L248.04,211.81L248.56,246.95L249.08,229.26L249.6,214.13L250.12,244.95L250.64,247.55L251.16,237.79L251.68,208.74L252.2,240.77L252.72,240.25L253.24,230.52L253.76,237.97L254.28,224.08L254.8,218.17L255.32,228.67L255.84,243.93L256.36,228.79L256.88,255.84L257.4,227.34L257.92,224.47L258.44,234.39L258.96,210.58L259.48,223.69L260,245.22L260.52,236.28L261.04,233.1L261.56,230.89L262.08,246.55L262.6,216.46L263.12,221.75L263.64,211.44L264.16,203.36L264.68,237.15L265.2,206.39L265.72,244.68L266.24,219.89L266.76,248.31L267.8,226.69L268.32,228.28L268.84,224.99L269.36,237.97L270.4,219.57L270.92,239.29L271.44,221.94L271.96,254.97L272.48,249.89L273,265.64L273.52,229.02L274.04,253.92L274.56,236.53L275.08,237.12L275.6,244.5L276.64,230.3L277.16,244.79L277.68,219.9L278.2,241.1L279.24,263.93L279.76,217.92L280.28,214.34L280.8,220.68L281.32,239.37L281.84,221.1L282.88,241.55L283.4,231.05L283.92,256.55L284.44,245.65L284.96,227.98L285.48,196.84L286,258.86L286.52,227.42L287.04,246.88L287.56,217.83L288.08,255.53L289.64,218.26L290.16,258.69L290.68,216.59L291.2,229.38L291.72,224.79L292.24,213L292.76,252.74L293.28,208.03L293.8,237.48L294.32,214.5L294.84,259.34L295.88,222.55L296.4,237.26L296.92,254.99L297.44,230.76L298.48,251.45L299,240.74L299.52,233.25L300.04,235.74L300.56,244.15L301.6,196.47L302.12,249.6L302.64,177.71L303.16,264.87L304.72,186.03L305.24,244.7L305.76,259.59L306.28,212.86L306.8,200.34L307.32,225.87L308.36,257.3L308.88,249.44L309.4,202.14L309.92,232.12L310.44,212.68L310.96,245.87L312.52,223.92L313.04,221.68L313.56,230.79L314.08,223.48L314.6,216.72L315.12,233.26L315.64,229.79L316.16,233.71L316.68,192.16L317.2,246.02L317.72,250.7L318.24,220.33L318.76,274.85L319.28,243.09L319.8,247.59L320.32,230.68L320.84,213.12L321.36,232.15L322.4,248.78L322.92,235.12L323.44,238.97L323.96,256.53L324.48,261.12L325,208.27L325.52,215.16L326.04,256.14L326.56,175.1L327.08,229.1L327.6,253.59L328.12,235.44L328.64,200.09L329.16,203.59L329.68,256.01L330.72,229.86L331.24,254.75L331.76,244.97L332.28,219.7L332.8,261.84L333.32,219.96L333.84,228.84L334.36,210.15L334.88,196.36L335.4,251.42L335.92,225.32L336.44,244.35L336.96,225.88L337.48,257.31L338,258.6L338.52,236.43L339.04,253.85L339.56,249.68L340.08,232.81L340.6,252.52L341.12,246.43L341.64,255.83L342.16,219.25L342.68,232.85L343.2,219.32L343.72,212.95L344.24,231.87L344.76,247.19L345.28,222.34L345.8,207.73L346.32,218.93L346.84,238.89L347.36,217.89L347.88,237.81L348.4,229.79L348.92,239.99L349.44,234.79L349.96,246.3L350.48,226.49L351,243.82L351.52,258.44L352.04,241.18L352.56,219.64L353.08,256.47L354.12,265.07L354.64,228.29L355.16,228.71L355.68,219.31L356.2,211.6L356.72,238.97L357.24,240.34L357.76,260.69L358.8,198.36L359.32,248.43L360.36,238L360.88,224.88L361.4,257.47L361.92,246.88L362.44,244.86L362.96,230.02L363.48,237.2L364,258.71L364.52,241.47L365.04,215.67L365.56,244.48L366.08,228.39L366.6,231.72L367.12,244.18L367.64,245.11L368.16,260.38L368.68,259.82L369.2,198.49L370.76,262.19L371.28,225.65L373.36,254.22L373.88,236.56L374.4,237.16L374.92,235.17L375.44,253.37L375.96,224.69L376.48,245.03L377,228.86L378.04,261.38L378.56,239.38L379.08,213.63L379.6,248.84L380.12,235.94L380.64,244.68L381.16,251.61L381.68,232.48L382.2,251.3L382.72,231.75L383.24,236.73L383.76,223.48L384.28,204.96L384.8,244.67L385.32,214.58L385.84,243.54L386.88,253.61L387.4,241.3L387.92,265.55L388.44,251.91L388.96,247.2L389.48,224.1L390,227.94L390.52,239.63L391.04,207.32L391.56,220.26L392.08,211.97L392.6,239L393.12,214.52L393.64,206.34L394.16,216.49L394.68,212.66L395.2,244.29L395.72,242.73L396.24,170.88L396.76,261.4L397.28,234.39L397.8,256.72L398.84,230.94L399.36,229.14L400.4,250.98L400.92,249.22L401.44,221.63L401.96,243.36L402.48,219.32L403.52,260.35L404.04,225.75L404.56,224.48L405.08,247.89L405.6,246.65L406.12,232.03L406.64,227.62L407.16,230.25L407.68,219.75L408.2,250.59L408.72,238.03L409.24,248.15L409.76,253.1L410.28,225.17L411.32,244.61L411.84,232.94L412.36,251.89L412.88,242.82L413.4,233.51L413.92,240.61L414.44,259.79L414.96,253.54L415.48,257.53L416,255.95" style="vector-effect: non-scaling-stroke; fill: none; stroke: rgb(31, 119, 180); stroke-opacity: 1; stroke-width: 2px; opacity: 1;"/></g><g class="points"/><g class="text"/></g><g class="trace scatter trace67b3db" style="stroke-miterlimit: 2; opacity: 1;"><g class="fills"/><g class="errorbars"/><g class="lines"><path class="js-line" d="M0,376.2L2.6,281.02L3.12,284.35L5.2,267.7L5.72,271.03L7.28,257.82L7.8,262.76L8.84,261.47L9.36,257.5L9.88,255.46L10.4,259.32L11.44,256.64L11.96,258.68L12.48,255.46L13,257.28L14.56,254.92L15.08,254.7L16.64,254.49L17.16,251.16L17.68,249.22L18.2,255.67L18.72,248.37L19.24,249.12L19.76,253.41L20.28,252.23L20.8,253.41L21.84,248.04L22.36,256.74L22.88,250.84L23.4,253.84L23.92,249.65L24.44,250.3L24.96,252.98L25.48,249.87L26,251.16L26.52,248.26L27.56,250.41L28.08,250.94L29.64,248.15L30.16,250.73L30.68,249.76L31.2,252.45L31.72,245.89L32.24,246.97L32.76,246.54L34.32,249.98L34.84,245.89L35.88,249.98L36.4,247.83L36.92,248.9L37.44,245.68L38.48,245.57L39,248.58L40.04,245.14L40.56,246.32L41.6,246.22L42.12,247.72L42.64,245.46L43.16,246.22L43.68,246.32L44.72,244.61L45.24,245.36L45.76,246.54L46.28,245.14L46.8,246.43L47.32,242.67L48.36,247.18L48.88,245.46L49.4,243.53L49.92,244.28L50.44,247.08L50.96,244.71L51.48,245.25L52,248.04L53.04,244.18L53.56,243.85L54.6,245.36L55.12,243.64L55.64,242.78L56.16,245.68L56.68,245.79L57.2,241.28L57.72,245.14L58.24,242.78L58.76,243.32L59.28,242.78L59.8,244.5L60.32,244.82L60.84,242.03L61.36,244.07L61.88,242.35L62.4,242.56L62.92,245.46L63.44,240.42L63.96,241.6L64.48,244.61L66.56,242.46L67.08,242.89L68.12,240.31L68.64,246.54L69.68,239.99L70.2,241.81L70.72,239.77L71.24,239.99L71.76,241.49L72.28,240.85L72.8,242.78L73.32,243.1L73.84,239.34L74.36,242.67L74.88,240.74L75.4,244.39L75.92,241.92L76.44,239.99L76.96,242.24L78,241.92L78.52,239.88L79.04,242.46L79.56,239.45L80.08,242.89L80.6,241.28L81.12,239.88L81.64,242.46L82.68,238.48L83.2,241.06L84.24,238.27L84.76,242.13L85.8,242.13L86.32,242.89L86.84,242.89L87.36,237.84L88.4,240.31L88.92,240.63L89.44,239.45L89.96,244.07L91,238.59L91.52,237.73L92.04,240.31L92.56,240.09L93.08,235.8L93.6,240.42L94.12,239.88L94.64,237.73L95.16,241.92L95.68,236.76L97.24,240.42L97.76,239.23L98.8,239.88L99.32,237.73L100.36,237.94L100.88,239.13L101.4,240.42L101.92,236.76L102.44,240.2L102.96,238.27L103.48,239.66L104,238.05L104.52,235.37L105.04,238.16L105.56,239.45L106.08,238.37L107.12,240.42L107.64,237.62L108.16,239.13L108.68,236.66L109.2,240.95L109.72,239.88L110.24,238.05L110.76,236.66L111.28,237.19L111.8,238.48L112.84,237.84L113.36,238.48L113.88,238.59L114.4,237.73L114.92,238.8L115.44,237.3L115.96,234.4L116.48,240.85L117.52,237.52L118.04,238.37L119.08,237.09L119.6,238.16L120.12,236.76L120.64,238.7L121.16,237.94L121.68,234.61L122.72,236.76L123.24,238.8L123.76,238.27L124.28,235.69L124.8,237.41L125.32,236.44L125.84,232.14L126.36,237.62L126.88,237.3L127.4,238.91L128.44,237.19L128.96,237.62L130,238.16L130.52,238.16L131.56,237.52L132.08,235.58L132.6,236.23L133.12,239.88L134.16,235.69L134.68,237.52L135.2,237.09L135.72,235.47L136.24,237.41L136.76,234.83L137.8,238.7L138.32,234.94L139.36,236.44L139.88,235.37L141.96,237.62L142.48,236.66L143,233.97L143.52,236.44L144.04,237.84L144.56,236.76L145.08,233.22L145.6,235.47L146.12,232.57L146.64,237.94L147.16,239.23L147.68,234.4L148.2,236.12L148.72,235.69L149.24,233.76L149.76,238.91L150.28,237.41L150.8,234.19L151.32,233.97L151.84,236.33L152.36,236.33L152.88,235.26L153.92,235.04L154.44,235.69L154.96,238.05L155.48,234.72L156,233.86L156.52,234.51L158.08,237.62L158.6,235.58L159.64,233.86L160.16,238.05L161.2,234.83L161.72,235.26L162.76,235.58L163.28,232.25L165.36,235.9L165.88,233.76L166.4,235.04L166.92,233.33L167.44,234.94L167.96,233.43L169.52,234.94L170.04,233.43L170.56,235.47L171.08,234.94L171.6,235.69L172.12,233.65L172.64,235.04L173.16,231.82L173.68,234.83L174.72,236.66L175.24,234.83L175.76,233.33L176.28,237.94L176.8,232.57L177.32,235.37L177.84,236.55L178.36,233.54L178.88,233.65L179.4,232.04L179.92,235.58L180.44,232.79L180.96,234.08L181.48,238.37L182,232.68L182.52,233.11L183.04,236.66L184.08,232.36L184.6,232.9L185.12,233.76L185.64,233.22L186.16,233.65L186.68,231.07L187.2,232.9L188.24,233.86L188.76,234.08L189.28,232.14L189.8,232.79L190.32,232.47L191.36,234.72L191.88,232.47L193.96,234.19L194.48,232.79L195,230.64L195.52,234.4L196.56,231.5L197.08,235.37L197.6,232.79L198.12,234.19L199.16,234.61L199.68,233.43L200.72,232.47L201.24,232.57L201.76,233.76L202.28,231.18L202.8,234.83L203.32,234.08L203.84,231.93L204.36,236.01L204.88,232.25L205.4,232.04L205.92,233.33L206.96,231.93L207.48,233.54L208,231.61L208.52,231.93L209.04,231.71L209.56,232.14L210.08,231.39L210.6,231.28L211.12,232.68L211.64,232.04L212.16,233.54L212.68,233.97L213.2,231.71L213.72,232.79L214.24,232.04L214.76,233L215.28,231.5L216.32,233.43L216.84,230.32L217.88,234.83L218.4,231.5L219.96,230.96L220.48,233.97L223.08,230.96L223.6,234.19L224.12,230.64L224.64,232.04L225.16,231.07L225.68,233.54L226.2,232.57L226.72,233.11L227.24,233.97L227.76,229.78L228.28,234.72L228.8,231.07L229.32,230.75L229.84,232.47L231.4,233.76L231.92,233L232.96,230.53L233.48,232.25L234,233.86L234.52,229.24L236.08,231.18L236.6,233.86L237.12,229.78L237.64,232.36L238.16,230.21L238.68,235.69L239.2,230.96L239.72,231.28L240.24,232.57L240.76,232.25L241.28,233.65L242.32,229.35L242.84,232.36L243.36,230.43L243.88,231.61L244.92,229.57L245.44,230.43L245.96,228.6L246.48,231.07L247,230.53L247.52,232.04L248.04,232.47L248.56,230.1L249.08,228.49L249.6,230.96L250.12,232.68L250.64,231.39L251.68,233.43L252.2,230.53L252.72,231.39L253.24,230.32L253.76,232.68L254.28,232.14L254.8,231.39L255.32,230.21L255.84,231.18L256.36,229.67L256.88,229.89L257.4,233.43L257.92,232.57L258.44,230L258.96,228.71L259.48,230.21L260,231.18L260.52,229.14L261.56,233L262.08,227.85L263.64,232.14L264.16,228.71L265.2,231.5L265.72,231.18L266.24,231.07L266.76,228.81L267.28,230.85L267.8,231.82L268.32,229.14L269.36,230.96L269.88,230.32L270.4,230.75L270.92,228.6L271.44,231.28L271.96,230.43L272.48,228.06L273.52,232.57L274.04,231.61L274.56,230.64L275.08,231.39L276.64,229.35L277.16,230.75L277.68,230.75L278.2,231.82L278.72,230.75L279.24,227.2L280.28,231.39L280.8,230.43L281.32,230.85L281.84,232.79L282.88,227.85L283.4,230.53L283.92,230.75L284.44,229.46L284.96,231.71L285.48,230.96L286,230L286.52,230.53L287.04,228.71L287.56,232.47L288.08,230.21L288.6,231.93L289.12,229.89L289.64,231.5L290.16,231.28L290.68,230.85L291.2,229.24L291.72,230.53L292.24,226.34L292.76,230.75L293.8,228.6L294.32,230.1L294.84,230.96L295.36,227.95L295.88,228.17L296.4,232.57L296.92,228.49L297.44,230.1L297.96,232.04L298.48,227.95L299,230.64L300.56,229.03L301.08,231.61L301.6,228.17L302.12,229.78L302.64,230.64L303.16,228.6L303.68,229.35L304.2,228.17L304.72,234.08L305.24,228.38L306.28,228.81L306.8,230.53L307.32,229.24L307.84,229.57L308.36,232.79L308.88,229.24L309.4,231.18L309.92,229.35L310.44,232.25L311.48,232.04L312,229.57L313.04,232.14L313.56,229.24L314.6,228.81L315.12,230.32L316.16,229.67L316.68,230.96L317.72,229.14L318.24,229.89L318.76,231.07L319.28,226.99L320.84,230.85L321.36,230.85L322.4,226.56L322.92,232.04L324.48,228.71L325,232.04L327.08,227.95L327.6,230.53L328.64,228.38L329.16,230.96L329.68,229.35L330.2,232.25L331.24,229.78L331.76,230.21L332.28,231.82L332.8,227.95L333.32,227.74L333.84,229.46L334.88,227.95L335.4,229.14L335.92,230.64L336.44,228.49L336.96,228.28L337.48,226.67L338.52,229.67L339.04,228.6L340.08,228.81L340.6,229.78L341.12,230.85L341.64,229.03L342.16,228.38L342.68,231.18L343.2,227.74L343.72,230L344.24,228.38L344.76,229.57L345.28,228.28L345.8,229.89L346.32,229.35L346.84,230.32L347.36,230.21L347.88,227.85L348.4,231.18L348.92,229.78L349.44,229.46L349.96,227.2L350.48,230.53L351,228.38L351.52,229.03L352.04,228.49L353.08,228.38L353.6,229.57L354.12,228.17L354.64,230.53L356.72,228.92L357.24,229.24L357.76,229.24L358.28,230.85L359.32,229.57L359.84,228.17L360.36,229.78L360.88,229.35L361.4,229.57L361.92,232.25L362.44,229.35L362.96,229.35L363.48,230.64L364.52,226.45L365.04,230.32L365.56,228.06L366.08,228.6L366.6,229.46L367.12,227.95L367.64,230.75L368.68,227.31L369.2,230.85L369.72,230.75L370.24,229.57L370.76,230.96L371.28,229.14L371.8,232.68L372.32,229.46L373.36,229.57L373.88,227.85L374.92,230.43L375.44,228.06L375.96,230.32L376.48,229.03L377,230.43L377.52,229.46L378.04,227.74L378.56,230.64L379.08,230.32L379.6,229.03L380.12,231.61L380.64,227.52L381.16,230.64L381.68,229.24L382.2,230.21L382.72,229.89L383.24,227.42L384.28,230.53L384.8,229.03L385.32,231.5L385.84,228.38L386.36,229.35L386.88,228.49L388.44,228.17L388.96,228.6L389.48,227.52L390,230.32L390.52,227.74L391.04,231.93L391.56,229.03L392.08,231.93L392.6,227.31L393.12,230.64L393.64,230.75L394.16,228.06L394.68,227.95L395.2,229.57L395.72,230.53L396.24,228.28L396.76,229.89L397.28,227.1L397.8,230.21L398.32,229.89L398.84,231.18L399.88,230.96L400.4,229.67L400.92,230.32L401.44,228.17L401.96,231.39L402.48,226.77L403,231.18L403.52,228.28L405.08,230.96L405.6,227.52L406.12,231.18L406.64,229.35L407.16,228.71L407.68,230.43L409.24,227.31L409.76,229.46L410.28,230.96L410.8,228.81L411.32,229.14L411.84,230.96L412.88,227.2L413.4,228.92L414.96,229.14L415.48,228.06L416,230.43" style="vector-effect: non-scaling-stroke; fill: none; stroke: rgb(255, 127, 14); stroke-opacity: 1; stroke-width: 2px; opacity: 1;"/></g><g class="points"/><g class="text"/></g></g></g><g class="overplot"/><path class="xlines-above crisp" d="M0,0" style="fill: none;"/><path class="ylines-above crisp" d="M0,0" style="fill: none;"/><g class="overlines-above"/><g class="xaxislayer-above"><g class="xtick"><text text-anchor="middle" x="0" y="469" transform="translate(60,0)" style="font-family: 'Open Sans', verdana, arial, sans-serif; font-size: 12px; fill: rgb(68, 68, 68); fill-opacity: 1; white-space: pre;">0</text></g><g class="xtick"><text text-anchor="middle" x="0" y="469" transform="translate(164,0)" style="font-family: 'Open Sans', verdana, arial, sans-serif; font-size: 12px; fill: rgb(68, 68, 68); fill-opacity: 1; white-space: pre;">10k</text></g><g class="xtick"><text text-anchor="middle" x="0" y="469" transform="translate(268,0)" style="font-family: 'Open Sans', verdana, arial, sans-serif; font-size: 12px; fill: rgb(68, 68, 68); fill-opacity: 1; white-space: pre;">20k</text></g><g class="xtick"><text text-anchor="middle" x="0" y="469" transform="translate(372,0)" style="font-family: 'Open Sans', verdana, arial, sans-serif; font-size: 12px; fill: rgb(68, 68, 68); fill-opacity: 1; white-space: pre;">30k</text></g><g class="xtick"><text text-anchor="middle" x="0" y="469" transform="translate(476,0)" style="font-family: 'Open Sans', verdana, arial, sans-serif; font-size: 12px; fill: rgb(68, 68, 68); fill-opacity: 1; white-space: pre;">40k</text></g></g><g class="yaxislayer-above"><g class="ytick"><text text-anchor="end" x="59" y="4.199999999999999" transform="translate(0,436.2)" style="font-family: 'Open Sans', verdana, arial, sans-serif; font-size: 12px; fill: rgb(68, 68, 68); fill-opacity: 1; white-space: pre;">0</text></g><g class="ytick"><text text-anchor="end" x="59" y="4.199999999999999" transform="translate(0,350.26)" style="font-family: 'Open Sans', verdana, arial, sans-serif; font-size: 12px; fill: rgb(68, 68, 68); fill-opacity: 1; white-space: pre;">0.5</text></g><g class="ytick"><text text-anchor="end" x="59" y="4.199999999999999" transform="translate(0,264.32)" style="font-family: 'Open Sans', verdana, arial, sans-serif; font-size: 12px; fill: rgb(68, 68, 68); fill-opacity: 1; white-space: pre;">1</text></g><g class="ytick"><text text-anchor="end" x="59" y="4.199999999999999" transform="translate(0,178.38)" style="font-family: 'Open Sans', verdana, arial, sans-serif; font-size: 12px; fill: rgb(68, 68, 68); fill-opacity: 1; white-space: pre;">1.5</text></g><g class="ytick"><text text-anchor="end" x="59" y="4.199999999999999" transform="translate(0,92.44)" style="font-family: 'Open Sans', verdana, arial, sans-serif; font-size: 12px; fill: rgb(68, 68, 68); fill-opacity: 1; white-space: pre;">2</text></g></g><g class="overaxes-above"/></g></g><g class="polarlayer"/><g class="ternarylayer"/><g class="geolayer"/><g class="funnelarealayer"/><g class="pielayer"/><g class="treemaplayer"/><g class="sunburstlayer"/><g class="glimages"/><defs id="topdefs-b9a7db"><g class="clips"/><clipPath id="legendb9a7db"><rect width="67" height="48" x="0" y="0"/></clipPath></defs><g class="layer-above"><g class="imagelayer"/><g class="shapelayer"/></g><g class="infolayer"><g class="legend" pointer-events="all" transform="translate(484.32,60)"><rect class="bg" shape-rendering="crispEdges" width="67" height="48" x="0" y="0" style="stroke: rgb(68, 68, 68); stroke-opacity: 1; fill: rgb(255, 255, 255); fill-opacity: 1; stroke-width: 0px;"/><g class="scrollbox" transform="" clip-path="url('#legendb9a7db')"><g class="groups"><g class="traces" transform="translate(0,14.5)" style="opacity: 1;"><text class="legendtext" text-anchor="start" x="40" y="4.680000000000001" style="font-family: 'Open Sans', verdana, arial, sans-serif; font-size: 12px; fill: rgb(68, 68, 68); fill-opacity: 1; white-space: pre;">loss</text><g class="layers" style="opacity: 1;"><g class="legendfill"/><g class="legendlines"><path class="js-line" d="M5,0h30" style="fill: none; stroke: rgb(31, 119, 180); stroke-opacity: 1; stroke-width: 2px;"/></g><g class="legendsymbols"><g class="legendpoints"/></g></g><rect class="legendtoggle" x="0" y="-9.5" width="61.375" height="19" style="fill: rgb(0, 0, 0); fill-opacity: 0;"/></g><g class="traces" transform="translate(0,33.5)" style="opacity: 1;"><text class="legendtext" text-anchor="start" x="40" y="4.680000000000001" style="font-family: 'Open Sans', verdana, arial, sans-serif; font-size: 12px; fill: rgb(68, 68, 68); fill-opacity: 1; white-space: pre;">acc</text><g class="layers" style="opacity: 1;"><g class="legendfill"/><g class="legendlines"><path class="js-line" d="M5,0h30" style="fill: none; stroke: rgb(255, 127, 14); stroke-opacity: 1; stroke-width: 2px;"/></g><g class="legendsymbols"><g class="legendpoints"/></g></g><rect class="legendtoggle" x="0" y="-9.5" width="61.375" height="19" style="fill: rgb(0, 0, 0); fill-opacity: 0;"/></g></g></g><rect class="scrollbar" rx="20" ry="3" width="0" height="0" x="0" y="0" style="fill: rgb(128, 139, 164); fill-opacity: 1;"/></g><g class="g-gtitle"><text class="gtitle" x="281.5" y="30" text-anchor="middle" dy="0em" style="font-family: 'Open Sans', verdana, arial, sans-serif; font-size: 17px; fill: rgb(68, 68, 68); opacity: 1; font-weight: normal; white-space: pre;">train-loss&amp;acc</text></g><g class="g-xtitle"/><g class="g-ytitle"/></g></svg>