<svg class="main-svg" xmlns="http://www.w3.org/2000/svg" xmlns:xlink="http://www.w3.org/1999/xlink" width="563" height="516" style="" viewBox="0 0 563 516"><rect x="0" y="0" width="563" height="516" style="fill: rgb(255, 255, 255); fill-opacity: 1;"/><defs id="defs-b90cc7"><g class="clips"><clipPath id="clipb90cc7xyplot" class="plotclip"><rect width="416" height="396"/></clipPath><clipPath class="axesclip" id="clipb90cc7x"><rect x="60" y="0" width="416" height="516"/></clipPath><clipPath class="axesclip" id="clipb90cc7y"><rect x="0" y="60" width="563" height="396"/></clipPath><clipPath class="axesclip" id="clipb90cc7xy"><rect x="60" y="60" width="416" height="396"/></clipPath></g><g class="gradients"/></defs><g class="bglayer"/><g class="layer-below"><g class="imagelayer"/><g class="shapelayer"/></g><g class="cartesianlayer"><g class="subplot xy"><g class="layer-subplot"><g class="shapelayer"/><g class="imagelayer"/></g><g class="gridlayer"><g class="x"><path class="xgrid crisp" transform="translate(164,0)" d="M0,60v396" style="stroke: rgb(238, 238, 238); stroke-opacity: 1; stroke-width: 1px;"/><path class="xgrid crisp" transform="translate(268,0)" d="M0,60v396" style="stroke: rgb(238, 238, 238); stroke-opacity: 1; stroke-width: 1px;"/><path class="xgrid crisp" transform="translate(372,0)" d="M0,60v396" style="stroke: rgb(238, 238, 238); stroke-opacity: 1; stroke-width: 1px;"/></g><g class="y"><path class="ygrid crisp" transform="translate(0,373.35)" d="M60,0h416" style="stroke: rgb(238, 238, 238); stroke-opacity: 1; stroke-width: 1px;"/><path class="ygrid crisp" transform="translate(0,310.5)" d="M60,0h416" style="stroke: rgb(238, 238, 238); stroke-opacity: 1; stroke-width: 1px;"/><path class="ygrid crisp" transform="translate(0,247.66)" d="M60,0h416" style="stroke: rgb(238, 238, 238); stroke-opacity: 1; stroke-width: 1px;"/><path class="ygrid crisp" transform="translate(0,184.81)" d="M60,0h416" style="stroke: rgb(238, 238, 238); stroke-opacity: 1; stroke-width: 1px;"/><path class="ygrid crisp" transform="translate(0,121.96000000000001)" d="M60,0h416" style="stroke: rgb(238, 238, 238); stroke-opacity: 1; stroke-width: 1px;"/></g></g><g class="zerolinelayer"><path class="xzl zl crisp" transform="translate(60,0)" d="M0,60v396" style="stroke: rgb(68, 68, 68); stroke-opacity: 1; stroke-width: 1px;"/><path class="yzl zl crisp" transform="translate(0,436.2)" d="M60,0h416" style="stroke: rgb(68, 68, 68); stroke-opacity: 1; stroke-width: 1px;"/></g><path class="xlines-below"/><path class="ylines-below"/><g class="overlines-below"/><g class="xaxislayer-below"/><g class="yaxislayer-below"/><g class="overaxes-below"/><g class="plot" transform="translate(60,60)" clip-path="url('#clipb90cc7xyplot')"><g class="scatterlayer mlayer"><g class="trace scatter trace399b88" style="stroke-miterlimit: 2; opacity: 1;"><g class="fills"/><g class="errorbars"/><g class="lines"><path class="js-line" d="M0,376.2L0.52,111.93L1.04,137.53L1.56,155.34L2.6,201.17L3.12,199.68L3.64,186.73L4.16,171.39L4.68,186.58L5.2,197.65L5.72,167.59L6.76,186.45L7.28,63.77L8.84,175.96L9.36,145.99L9.88,157.2L10.4,111.24L10.92,47.35L11.44,131.59L11.96,127.3L12.48,152.43L13,176.97L13.52,150.84L14.04,133.97L14.56,143.06L15.08,19.8L15.6,182.64L16.12,178.03L16.64,114.64L17.16,178.31L17.68,104.61L18.72,151.02L19.24,118.48L20.28,174.08L20.8,125.67L21.32,163.81L21.84,130.65L22.36,188.4L22.88,132.29L23.4,192.21L23.92,174.87L24.44,191.39L24.96,213.54L25.48,172.54L26,196.23L26.52,160.31L27.04,166.33L27.56,206.15L28.08,217.36L28.6,174.65L29.12,190.85L29.64,182.87L30.68,160.33L31.2,208.19L32.24,198.33L32.76,184.39L33.28,184.17L33.8,199.04L34.32,166.87L34.84,186.31L35.36,174.64L35.88,214.58L36.4,212.07L36.92,215.53L37.44,201.57L37.96,208.92L38.48,169.65L39,205.02L39.52,230.42L40.04,179.94L40.56,199.9L41.08,197.14L41.6,196.4L42.12,199.01L42.64,188.33L43.16,221.61L43.68,188.31L44.2,160.79L44.72,194.97L45.76,234.43L46.28,191.76L46.8,223.94L47.32,188.98L48.36,206.14L48.88,229.79L49.4,206.99L49.92,208.69L50.44,207.78L51.48,206.49L52,191.56L52.52,213.15L53.04,205.41L53.56,209.35L54.08,206.85L54.6,207.69L55.12,224.34L55.64,172.81L56.16,217.93L56.68,213.94L57.2,243.58L57.72,230.42L58.24,192.13L58.76,191.62L59.28,186.37L60.84,225.02L61.36,191.58L61.88,211.03L62.4,210.14L62.92,168.39L64.48,228.16L65,186.21L65.52,243.21L66.04,226.29L66.56,185.1L67.6,240.35L68.12,197.13L69.68,217.12L70.2,213.4L71.76,233.69L72.28,232.48L73.32,172.79L73.84,224.63L74.36,227.66L74.88,202.64L75.4,213.46L75.92,202.82L76.96,232.7L77.48,213.83L78,232.27L78.52,205.32L79.04,229.75L79.56,217.52L80.08,235.48L80.6,219.19L81.12,226.41L81.64,210.72L82.68,245.31L83.2,222.95L83.72,228.08L84.24,224.27L84.76,231.92L85.28,218.08L85.8,227.31L86.32,216.65L86.84,219.72L87.36,215.84L87.88,229.72L88.4,214.35L88.92,214.45L89.44,222.62L89.96,216.92L90.48,160.8L92.04,261.17L92.56,224.82L93.08,225.68L93.6,214.94L94.12,234.93L94.64,227.87L95.16,230.45L96.2,214.87L96.72,205.19L97.24,203.73L97.76,216.71L99.32,231.67L99.84,227.19L100.36,207.49L100.88,231.88L101.4,183.51L101.92,232.2L102.44,204.64L102.96,221.13L103.48,249.53L104,237.19L104.52,220.14L105.04,218.64L105.56,229.08L106.08,235.93L106.6,215.74L107.12,231.65L107.64,217.41L108.16,202.97L108.68,222.4L109.2,208.8L109.72,224.32L110.76,212.79L111.28,239.52L112.32,220.94L112.84,238.34L113.36,196.79L113.88,219.42L114.4,224.63L114.92,214.43L115.44,212.03L115.96,236.21L117,211.2L117.52,218.26L118.04,230.41L118.56,213.56L119.08,196.8L119.6,229.76L120.64,245.27L121.16,224.71L121.68,229.99L122.2,226.81L122.72,227.39L123.24,223.96L123.76,250.79L124.28,240.96L124.8,234.44L125.32,215.85L125.84,229.68L126.36,226.53L126.88,233L127.92,248.39L128.44,236.28L128.96,253.22L129.48,214.89L131.04,250.41L131.56,229.22L132.08,244.48L132.6,233.45L133.12,239.97L133.64,227.74L134.68,229.16L135.2,226.36L135.72,209.3L136.24,231.85L136.76,225.17L137.28,237.83L138.32,186.65L138.84,247.9L139.36,249.13L139.88,225.03L140.4,213.43L140.92,251.95L141.96,195.37L142.48,245.09L143,207.42L143.52,214.3L144.04,227.89L144.56,242.83L145.08,232.12L145.6,218.65L146.12,227.52L146.64,250.3L147.16,242.2L147.68,236.03L148.2,243.98L148.72,219.68L149.24,210.74L149.76,224.72L150.8,238.64L151.32,221.52L152.88,242.78L153.4,224.17L153.92,255.03L154.44,246.36L154.96,239.19L155.48,226.82L156,246.15L157.04,236.32L157.56,240.89L158.08,228.17L158.6,231.46L159.12,239.56L160.16,228.21L160.68,233.81L161.2,219.06L161.72,247.59L162.24,207.91L162.76,236.14L163.28,210.61L163.8,240.06L164.32,244.82L164.84,241.21L165.36,228.02L165.88,241.44L167.44,213.07L167.96,239.49L168.48,241.03L169,228.38L169.52,245.06L170.04,238.28L170.56,239.39L171.6,236.5L172.12,215.63L172.64,213.87L173.16,239.15L173.68,241.56L174.2,241.26L174.72,205.2L175.24,223.2L175.76,194.79L176.8,238.13L177.32,245.29L177.84,242.95L178.36,229.44L178.88,242.74L179.4,225.22L179.92,241.62L180.44,236.52L180.96,247.78L181.48,222.9L182,230.71L182.52,247.28L183.04,218.52L183.56,235.79L184.08,235.79L184.6,254.93L185.12,256.9L185.64,217.48L186.68,243.67L187.2,233.93L187.72,254.92L188.24,244.88L189.8,222.58L190.32,246.81L190.84,253.03L191.36,251.76L191.88,229.36L192.4,228.78L192.92,225.59L193.44,228.73L193.96,243.67L195,224.22L195.52,237.95L196.04,253.3L196.56,248.12L197.08,242.59L197.6,216.44L198.12,249.56L199.16,215.41L199.68,253.96L200.2,236.75L200.72,251.96L201.24,239.39L201.76,240.47L202.28,243.92L203.32,249.93L203.84,226.34L204.36,190.91L204.88,251.67L205.4,244.55L205.92,249.45L206.44,251.26L206.96,224.36L208,251.93L208.52,229.39L209.04,252.09L209.56,226.84L211.12,255.36L211.64,248.73L212.16,244.79L212.68,252.09L213.2,249.36L213.72,235.93L214.76,245.74L215.28,242.24L215.8,249.39L216.32,242.98L216.84,235.3L217.36,255.6L217.88,247.08L218.4,251.37L219.44,225.48L219.96,246.73L220.48,248.1L221,256.17L221.52,216.89L222.04,256.73L223.08,242.13L223.6,247.8L224.12,242.13L224.64,254.03L225.68,225.38L226.2,231.11L226.72,202.88L227.24,240.23L227.76,255.53L228.28,253.55L228.8,238.83L229.32,228.31L229.84,262.08L230.36,244.46L230.88,256.5L231.4,243.54L231.92,245.82L232.44,239.85L232.96,258.39L233.48,254.38L234,237.61L234.52,203.45L235.04,234.13L235.56,234.04L236.08,242.99L236.6,248.54L237.12,226.98L237.64,255.6L238.16,234.82L239.2,247.71L239.72,253.37L240.76,246.21L241.28,231.51L241.8,261.75L242.32,240.13L242.84,248.66L243.36,242.45L243.88,222.92L244.4,240.97L244.92,248.1L245.44,245.57L245.96,239.34L246.48,247.67L247,233.6L248.56,254.54L249.08,248.94L249.6,231.76L250.12,240.94L250.64,254.39L251.16,238.48L252.2,258.03L252.72,248.78L253.24,244.56L253.76,252L254.28,241.61L254.8,246.85L255.32,248.74L255.84,260.93L257.4,239.69L257.92,246.05L258.44,237.48L258.96,248.92L259.48,237.79L260,255.96L261.56,219.43L262.08,239.58L262.6,236.48L263.12,225.57L263.64,253.27L264.16,240.51L264.68,223.34L265.2,242.43L265.72,252.1L266.24,248L266.76,243.54L267.8,242.6L268.32,258.91L269.36,232.29L269.88,260.74L270.4,229.05L270.92,244.99L271.44,257.59L271.96,251.55L272.48,241L273,269.23L274.04,238.09L274.56,246.48L275.08,251.81L275.6,244.24L276.12,251.75L276.64,239.65L277.16,241.66L277.68,259.23L278.72,249.41L279.24,259.6L280.28,234.5L280.8,262.78L281.84,232.41L282.36,248.14L282.88,249.71L283.4,247.48L283.92,250.75L284.44,231.15L285.48,257.57L286,239.91L287.04,261.47L287.56,255.92L288.08,253.24L288.6,241.35L289.12,226.67L289.64,244.14L290.16,241.56L290.68,250.42L291.2,260.94L291.72,240.03L292.24,234.15L292.76,250.32L293.8,239.66L294.32,243.81L294.84,261.25L295.36,243.93L295.88,267.35L296.4,247.82L296.92,260.61L297.44,221.26L299.52,259.89L300.04,255.72L300.56,256.37L301.08,253.43L301.6,227.25L302.12,240L302.64,258.43L303.16,255.19L303.68,244.51L304.2,257.41L304.72,252.08L305.24,252.36L305.76,251.54L306.28,236.83L306.8,242.23L307.32,239.83L307.84,243.46L308.36,239.98L308.88,258.78L309.4,259.8L309.92,240.85L310.44,233.12L310.96,251.89L312,260.76L312.52,235.69L313.56,262.96L314.08,247.1L314.6,254.61L315.12,252.14L315.64,239.52L316.16,242.53L316.68,223.06L317.72,261.67L318.24,255.64L318.76,255.56L319.8,260.47L320.32,224.48L320.84,254.99L321.36,232.5L321.88,262.58L322.4,244.67L323.44,253.61L323.96,244.17L324.48,226.55L325,247.57L325.52,257.05L326.04,252.19L326.56,250.96L327.08,223.59L328.12,258.7L328.64,249.03L329.16,261.6L329.68,255.43L330.2,255.83L330.72,235.75L331.24,253.74L331.76,241.73L332.28,261.69L332.8,238.29L333.84,263.2L334.36,244.87L334.88,249.48L335.4,243.16L335.92,244.34L336.44,269.04L336.96,246.77L337.48,248.57L338,252.23L338.52,249.13L339.04,260.6L339.56,261.26L340.08,259.47L340.6,247.09L341.12,257.27L341.64,241.57L342.16,255.3L343.2,258.63L343.72,243.5L344.24,242.44L344.76,255.13L345.28,241.71L345.8,250.26L346.32,253.42L346.84,252.92L347.36,248.89L347.88,256.11L348.4,226.08L348.92,257.84L349.44,251.9L349.96,232.1L350.48,228.91L351,252.3L351.52,248.25L352.04,251.94L352.56,244.56L353.08,254.19L354.12,246.45L354.64,254.69L355.68,263.15L356.2,245.72L356.72,247.01L357.24,240.23L357.76,258.3L358.28,249.79L359.32,254.2L359.84,254.1L360.36,247.23L360.88,217.33L361.4,254.5L361.92,239.58L362.44,239.87L362.96,254.78L363.48,241.14L364.52,257.75L365.04,245.66L365.56,253.61L366.08,249.79L366.6,249.09L367.12,242.21L368.68,250.81L369.2,238.76L370.24,267.63L370.76,257.24L371.28,249.11L371.8,263.34L372.32,238.08L372.84,250.76L373.36,252.02L373.88,265.67L375.96,233.84L376.48,241.46L378.04,258.48L378.56,238.41L379.6,255.07L380.12,252.75L380.64,255.84L381.16,243.09L381.68,231.24L382.2,247.47L382.72,239.35L383.24,253.5L383.76,255.53L384.28,224.95L384.8,250.03L385.32,248.56L385.84,252.54L386.88,248.49L387.4,223.6L387.92,265.42L388.44,242L388.96,253.61L389.48,220.65L390,243.14L390.52,236.18L391.04,243.4L391.56,263.69L392.08,254.49L392.6,253.65L393.12,217.57L394.16,258.91L394.68,264.29L395.2,242.34L395.72,242.41L396.24,241.54L396.76,255.76L397.28,248.76L397.8,239.8L398.32,254.04L398.84,261.26L399.36,251.16L400.4,228.09L400.92,259L401.96,232L402.48,252.26L403.52,239.3L404.04,242.47L404.56,257.91L405.08,238.95L406.12,247.93L406.64,244.38L407.16,243.9L407.68,257.3L408.2,242.31L408.72,250.52L409.24,249.51L409.76,255.81L410.28,251.68L410.8,254.44L411.32,246.73L411.84,252.31L412.36,243.67L412.88,258.38L414.44,243.69L414.96,251.96L415.48,236.4L416,255" style="vector-effect: non-scaling-stroke; fill: none; stroke: rgb(31, 119, 180); stroke-opacity: 1; stroke-width: 2px; opacity: 1;"/></g><g class="points"/><g class="text"/></g><g class="trace scatter trace26b5f8" style="stroke-miterlimit: 2; opacity: 1;"><g class="fills"/><g class="errorbars"/><g class="lines"><path class="js-line" d="M0,376.2L2.08,345.09L2.6,342.58L3.12,339.47L3.64,340.65L4.16,338.65L4.68,335.23L5.2,337.35L6.76,334.09L7.28,335.35L9.36,333.31L9.88,334.45L11.44,334.52L11.96,335.62L12.48,335.27L13,333.31L13.52,335.23L14.04,333.66L15.08,333.46L15.6,333.58L16.12,334.25L16.64,333.66L17.68,332.01L18.2,333.11L19.24,332.99L19.76,332.99L20.8,333.62L21.32,332.91L21.84,331.3L22.36,332.13L22.88,332.36L23.4,332.01L23.92,333.19L24.44,331.89L24.96,332.87L25.48,332.13L26,333.19L26.52,331.81L27.04,332.21L27.56,332.68L28.6,330.71L29.12,331.11L29.64,332.44L30.16,331.7L30.68,330.36L31.2,331.11L31.72,331.26L32.24,330.12L32.76,331.5L33.28,331.15L33.8,330.2L34.84,332.01L35.36,330.32L35.88,332.32L36.4,330.24L37.44,330.79L37.96,329.61L39,331.93L39.52,329.14L40.04,331.89L40.56,329.26L41.6,330.75L42.12,329.77L44.2,330.83L44.72,330.44L45.24,329.46L45.76,329.89L46.28,329.81L47.32,329.42L47.84,330.44L48.88,328.55L49.4,329.34L49.92,329.85L50.44,328.99L52,329.69L52.52,328.47L53.56,330.09L54.08,329.73L56.68,328.83L57.2,327.81L58.24,329.02L58.76,328.32L59.28,329.22L59.8,328.36L60.32,329.14L60.84,328.04L61.36,328.71L61.88,327.81L62.92,329.22L63.44,327.61L65,329.65L65.52,326.98L66.04,328.32L66.56,327.57L67.6,328.16L68.12,327.73L68.64,327.14L69.16,328.04L70.2,327.26L70.72,327.26L71.24,326.98L71.76,327.85L72.28,328.36L72.8,327.65L74.36,326.98L74.88,328.91L75.4,325.92L75.92,327.18L76.44,327.73L76.96,327.14L77.48,327.92L78,326.9L78.52,327.26L79.04,327.41L80.08,326.82L80.6,328.28L82.16,326.9L82.68,326.55L84.24,327.69L84.76,327.49L85.28,326.16L85.8,326.9L86.32,326.79L86.84,327.61L87.36,325.96L87.88,326.43L88.4,326.63L88.92,327.85L89.44,326.35L90.48,327.02L91,325.69L93.08,326.51L93.6,326.12L94.64,326.94L95.16,326.08L95.68,326.47L96.2,325.84L97.24,327.65L97.76,325.84L98.28,327.61L98.8,326.63L100.36,325.69L100.88,326.71L101.4,325.37L101.92,325.65L102.44,326.51L102.96,325.25L103.48,325.96L104,326.35L104.52,324.98L105.04,327.02L105.56,326.04L106.08,326.08L106.6,324.86L107.12,325.88L109.2,326.04L109.72,325.18L110.24,326.2L110.76,325.84L111.28,325.49L112.84,326.2L113.36,325.37L114.4,326.24L114.92,325.21L115.96,324.98L116.48,325.96L117,325.14L117.52,325.88L119.08,325.18L119.6,325.92L121.16,324.35L121.68,325.8L122.2,324.55L122.72,325.18L123.24,325.02L125.32,324.15L125.84,326.59L126.88,324.55L127.4,325.92L127.92,324.43L128.44,324.74L128.96,324.86L130,325.1L130.52,324.04L132.08,325.1L132.6,324.7L133.64,325.69L134.16,325.02L134.68,324.15L135.2,324.78L136.76,324.66L137.28,324.98L138.84,324.59L139.36,323.68L140.4,325.25L140.92,323.92L142.48,325.06L143,323.88L144.04,325.61L144.56,324.08L145.6,324.7L146.12,323.41L146.64,324.31L147.16,324L147.68,324.35L148.72,324.51L149.24,324.23L150.28,324.15L150.8,323.76L151.32,324.63L151.84,323.88L152.36,324.9L152.88,323.29L153.4,324.35L153.92,323.37L154.44,324.78L154.96,323.88L155.48,324.35L156,323.37L158.6,323.41L159.12,323.72L160.16,323.88L160.68,322.43L161.2,324.74L161.72,323.45L162.24,324.31L162.76,323.8L163.28,322.98L164.32,323.76L164.84,323.49L165.36,324.27L165.88,323.33L166.92,323.13L167.44,324.55L167.96,323.45L168.48,324.39L169,322.7L169.52,323.76L170.04,323.96L170.56,323.29L171.08,322.94L171.6,323.84L173.16,324.11L173.68,322.15L174.72,324.55L175.24,323.37L175.76,322.9L176.28,323.45L176.8,322.7L177.32,324.23L177.84,322.74L178.36,323.21L178.88,323.01L180.44,323.8L180.96,322.86L182,323.25L182.52,322.7L183.04,323.45L183.56,322.78L184.08,323.84L184.6,323.09L186.16,322.86L186.68,323.21L187.2,323.37L187.72,322.46L189.28,323.8L189.8,323.33L191.36,322.78L191.88,322.66L193.96,323.05L194.48,322.7L195,323.05L195.52,322.23L197.08,323.13L197.6,323.29L198.12,323.17L198.64,323.96L199.16,322.5L199.68,323.01L200.2,322.7L201.24,322.66L201.76,322.19L203.32,323.17L203.84,322.7L204.88,322.58L205.4,322.82L206.44,322.94L206.96,322.19L207.48,322.86L208,322.27L209.04,322.62L209.56,323.49L210.08,322.66L210.6,323.09L211.12,323.64L212.68,321.99L213.2,322.7L213.72,323.29L214.24,322.62L216.32,322.35L216.84,322.98L217.36,323.17L217.88,322.43L219.96,322.35L220.48,321.8L222.56,322.5L223.08,322.31L223.6,321.88L224.12,322.74L224.64,322.7L225.16,321.84L226.2,322.07L226.72,322.46L227.76,322.43L228.28,322.07L229.32,321.91L229.84,323.21L230.36,321.88L230.88,322.19L231.4,323.05L231.92,321.91L232.44,322.82L232.96,321.33L233.48,321.88L234,321.95L235.04,322.98L235.56,322.35L236.6,321.76L237.12,322.15L238.16,321.68L238.68,323.17L239.72,321.76L240.24,322.43L241.8,321.68L242.32,321.33L243.88,322.54L244.4,321.95L245.44,321.52L245.96,322.11L246.48,322.03L247,322.78L247.52,321.25L248.04,322.03L248.56,321.4L250.64,322.27L251.16,321.91L252.2,322.43L252.72,321.4L253.24,322.39L253.76,321.6L254.28,321.29L254.8,322.31L255.32,321.76L255.84,322.43L256.36,321.44L256.88,322.31L257.92,322.07L258.44,322.35L259.48,321.76L260,322.03L260.52,321.01L261.04,321.88L262.08,322.58L262.6,321.88L263.12,322.66L263.64,321.99L264.68,321.84L265.2,321.6L267.28,321.72L267.8,321.95L271.96,321.29L272.48,322.11L274.56,321.01L275.08,321.56L278.72,321.36L279.24,322.15L279.76,321.29L280.28,321.68L280.8,321.56L281.84,320.97L282.36,322.03L282.88,320.89L283.4,322.58L283.92,321.48L284.44,321.95L284.96,321.88L285.48,322.46L286,321.56L286.52,321.99L287.04,321.21L288.08,321.76L288.6,322.19L289.12,321.17L289.64,321.84L291.2,320.93L291.72,321.48L292.24,320.5L292.76,321.99L293.8,320.7L294.32,320.66L295.88,321.88L296.4,320.97L296.92,322.39L297.44,321.29L299,321.44L299.52,321.72L301.08,321.72L301.6,320.42L302.12,321.29L302.64,320.5L303.16,321.72L303.68,320.82L304.72,322.15L305.24,320.62L305.76,321.88L306.28,321.6L306.8,321.01L308.36,321.99L308.88,321.33L310.44,320.7L310.96,321.13L311.48,322.15L312,321.6L312.52,321.64L313.56,321.48L314.08,322.03L314.6,321.17L315.12,321.6L315.64,320.97L316.16,320.58L316.68,321.64L318.76,321.44L319.28,321.68L319.8,320.54L320.32,321.88L321.88,320.5L322.4,320.74L323.44,322.27L323.96,320.89L324.48,320.5L325,321.95L326.56,320.7L327.08,322.03L328.12,321.44L328.64,321.91L330.2,320.19L330.72,321.36L332.28,320.3L332.8,321.29L333.32,321.84L333.84,321.33L334.36,321.64L335.4,320.23L335.92,321.99L336.44,320.42L336.96,320.66L337.48,321.25L338,320.11L338.52,321.44L339.04,320.74L339.56,321.33L340.6,321.56L341.12,320.11L342.68,321.44L343.2,321.01L343.72,320.46L344.24,321.29L345.28,320.23L345.8,321.09L346.32,321.88L346.84,320.58L347.88,321.44L348.4,321.36L349.44,319.83L349.96,320.5L350.48,321.56L351,321.25L351.52,320.82L352.04,321.72L352.56,320.82L355.68,321.09L356.2,320.97L357.24,321.68L357.76,320.62L358.28,321.36L358.8,320.74L360.36,321.76L360.88,321.13L364.52,321.05L365.04,320.3L365.56,322.15L366.08,321.17L366.6,319.83L367.12,321.44L367.64,320.58L368.16,321.25L369.72,321.44L370.24,320.46L371.28,321.09L371.8,320.46L372.32,321.21L372.84,320.38L373.88,321.01L374.4,320.42L375.96,321.29L376.48,321.36L377,321.09L377.52,322.15L378.04,320.27L378.56,322.31L379.08,320.54L379.6,321.05L380.12,319.75L381.16,321.84L381.68,321.36L382.72,320.3L383.24,321.44L384.8,321.01L385.32,321.09L385.84,320.27L386.36,321.01L387.4,321.84L387.92,321.13L388.44,320.89L388.96,321.56L389.48,320.58L390,321.56L391.56,320.85L392.08,321.44L393.64,320.54L394.16,321.48L394.68,320.42L395.2,320.97L395.72,321.09L396.76,321.4L397.28,321.56L398.32,320.58L398.84,321.09L399.36,320.42L399.88,321.68L400.4,320.89L400.92,321.44L401.44,321.21L401.96,321.68L402.48,319.83L403,321.29L403.52,320.54L404.04,320.78L405.08,321.36L405.6,320.89L407.16,320.54L407.68,321.36L408.72,321.13L409.24,320.78L410.28,320.97L410.8,321.44L411.32,321.72L411.84,321.13L412.36,321.88L412.88,320.97L413.4,320.54L413.92,321.17L414.96,320.46L415.48,321.44L416,320.85" style="vector-effect: non-scaling-stroke; fill: none; stroke: rgb(255, 127, 14); stroke-opacity: 1; stroke-width: 2px; opacity: 1;"/></g><g class="points"/><g class="text"/></g></g></g><g class="overplot"/><path class="xlines-above crisp" d="M0,0" style="fill: none;"/><path class="ylines-above crisp" d="M0,0" style="fill: none;"/><g class="overlines-above"/><g class="xaxislayer-above"><g class="xtick"><text text-anchor="middle" x="0" y="469" transform="translate(60,0)" style="font-family: 'Open Sans', verdana, arial, sans-serif; font-size: 12px; fill: rgb(68, 68, 68); fill-opacity: 1; white-space: pre;">0</text></g><g class="xtick"><text text-anchor="middle" x="0" y="469" transform="translate(164,0)" style="font-family: 'Open Sans', verdana, arial, sans-serif; font-size: 12px; fill: rgb(68, 68, 68); fill-opacity: 1; white-space: pre;">10k</text></g><g class="xtick"><text text-anchor="middle" x="0" y="469" transform="translate(268,0)" style="font-family: 'Open Sans', verdana, arial, sans-serif; font-size: 12px; fill: rgb(68, 68, 68); fill-opacity: 1; white-space: pre;">20k</text></g><g class="xtick"><text text-anchor="middle" x="0" y="469" transform="translate(372,0)" style="font-family: 'Open Sans', verdana, arial, sans-serif; font-size: 12px; fill: rgb(68, 68, 68); fill-opacity: 1; white-space: pre;">30k</text></g><g class="xtick"><text text-anchor="middle" x="0" y="469" transform="translate(476,0)" style="font-family: 'Open Sans', verdana, arial, sans-serif; font-size: 12px; fill: rgb(68, 68, 68); fill-opacity: 1; white-space: pre;">40k</text></g></g><g class="yaxislayer-above"><g class="ytick"><text text-anchor="end" x="59" y="4.199999999999999" transform="translate(0,436.2)" style="font-family: 'Open Sans', verdana, arial, sans-serif; font-size: 12px; fill: rgb(68, 68, 68); fill-opacity: 1; white-space: pre;">0</text></g><g class="ytick"><text text-anchor="end" x="59" y="4.199999999999999" transform="translate(0,373.35)" style="font-family: 'Open Sans', verdana, arial, sans-serif; font-size: 12px; fill: rgb(68, 68, 68); fill-opacity: 1; white-space: pre;">1</text></g><g class="ytick"><text text-anchor="end" x="59" y="4.199999999999999" transform="translate(0,310.5)" style="font-family: 'Open Sans', verdana, arial, sans-serif; font-size: 12px; fill: rgb(68, 68, 68); fill-opacity: 1; white-space: pre;">2</text></g><g class="ytick"><text text-anchor="end" x="59" y="4.199999999999999" transform="translate(0,247.66)" style="font-family: 'Open Sans', verdana, arial, sans-serif; font-size: 12px; fill: rgb(68, 68, 68); fill-opacity: 1; white-space: pre;">3</text></g><g class="ytick"><text text-anchor="end" x="59" y="4.199999999999999" transform="translate(0,184.81)" style="font-family: 'Open Sans', verdana, arial, sans-serif; font-size: 12px; fill: rgb(68, 68, 68); fill-opacity: 1; white-space: pre;">4</text></g><g class="ytick"><text text-anchor="end" x="59" y="4.199999999999999" transform="translate(0,121.96000000000001)" style="font-family: 'Open Sans', verdana, arial, sans-serif; font-size: 12px; fill: rgb(68, 68, 68); fill-opacity: 1; white-space: pre;">5</text></g></g><g class="overaxes-above"/></g></g><g class="polarlayer"/><g class="ternarylayer"/><g class="geolayer"/><g class="funnelarealayer"/><g class="pielayer"/><g class="treemaplayer"/><g class="sunburstlayer"/><g class="glimages"/><defs id="topdefs-b90cc7"><g class="clips"/><clipPath id="legendb90cc7"><rect width="67" height="48" x="0" y="0"/></clipPath></defs><g class="layer-above"><g class="imagelayer"/><g class="shapelayer"/></g><g class="infolayer"><g class="legend" pointer-events="all" transform="translate(484.32,60)"><rect class="bg" shape-rendering="crispEdges" width="67" height="48" x="0" y="0" style="stroke: rgb(68, 68, 68); stroke-opacity: 1; fill: rgb(255, 255, 255); fill-opacity: 1; stroke-width: 0px;"/><g class="scrollbox" transform="" clip-path="url('#legendb90cc7')"><g class="groups"><g class="traces" transform="translate(0,14.5)" style="opacity: 1;"><text class="legendtext" text-anchor="start" x="40" y="4.680000000000001" style="font-family: 'Open Sans', verdana, arial, sans-serif; font-size: 12px; fill: rgb(68, 68, 68); fill-opacity: 1; white-space: pre;">loss</text><g class="layers" style="opacity: 1;"><g class="legendfill"/><g class="legendlines"><path class="js-line" d="M5,0h30" style="fill: none; stroke: rgb(31, 119, 180); stroke-opacity: 1; stroke-width: 2px;"/></g><g class="legendsymbols"><g class="legendpoints"/></g></g><rect class="legendtoggle" x="0" y="-9.5" width="61.375" height="19" style="fill: rgb(0, 0, 0); fill-opacity: 0;"/></g><g class="traces" transform="translate(0,33.5)" style="opacity: 1;"><text class="legendtext" text-anchor="start" x="40" y="4.680000000000001" style="font-family: 'Open Sans', verdana, arial, sans-serif; font-size: 12px; fill: rgb(68, 68, 68); fill-opacity: 1; white-space: pre;">acc</text><g class="layers" style="opacity: 1;"><g class="legendfill"/><g class="legendlines"><path class="js-line" d="M5,0h30" style="fill: none; stroke: rgb(255, 127, 14); stroke-opacity: 1; stroke-width: 2px;"/></g><g class="legendsymbols"><g class="legendpoints"/></g></g><rect class="legendtoggle" x="0" y="-9.5" width="61.375" height="19" style="fill: rgb(0, 0, 0); fill-opacity: 0;"/></g></g></g><rect class="scrollbar" rx="20" ry="3" width="0" height="0" x="0" y="0" style="fill: rgb(128, 139, 164); fill-opacity: 1;"/></g><g class="g-gtitle"><text class="gtitle" x="281.5" y="30" text-anchor="middle" dy="0em" style="font-family: 'Open Sans', verdana, arial, sans-serif; font-size: 17px; fill: rgb(68, 68, 68); opacity: 1; font-weight: normal; white-space: pre;">train-loss&amp;acc</text></g><g class="g-xtitle"/><g class="g-ytitle"/></g></svg>